# xmcd CD database file
#
# Track frame offsets:
#	150
#	24525
#	41250
#
# Disc length: 851 seconds
#
# Revision: 0
# Processed by: cddbd v1.5.1PL0 Copyright (c) Steve Scherf et al.
# Submitted via: CDex 1.51
#
DISCID=18035103
DTITLE=西野妙子 - 真冬だっていいじゃない
DYEAR=1992
DGENRE=JPop
TTITLE0=真冬だっていいじゃない
TTITLE1=緑のハーモニー
TTITLE2=真冬だっていいじゃない(カラオケ)
EXTD=YEAR: 1992
EXTT0=
EXTT1=
EXTT2=
PLAYORDER=
